<svg width="16" height="16" viewBox="0 0 16 16" fill="none" xmlns="http://www.w3.org/2000/svg">
<path fill-rule="evenodd" clip-rule="evenodd" d="M13.0382 9.20045C13.0343 8.98611 12.9575 8.70765 12.692 8.38821C11.878 7.40887 11.0738 6.42128 10.2697 5.43375L10.2696 5.4336L10.2692 5.43309C10.1204 5.25037 9.97165 5.06765 9.82281 4.88499L13.1606 1L8.66219 3.62514L8.9032 2.84274C5.24171 2.39285 2 5.3121 2 8.96178C2 12.1515 4.77102 14.9615 8.1165 14.9996C8.59888 15.005 9.12888 14.9625 9.5929 14.7516C7.8634 13.8657 6.87667 11.7295 7.40452 9.81253C7.31642 9.78123 7.20628 9.73844 7.08203 9.6822C5.12676 8.79714 5.11768 7.29851 5.99385 5.5877C5.09867 8.37652 7.83659 9.08344 7.83659 9.08344L11.354 10.1789C11.828 10.3275 12.1369 10.2921 12.3346 10.2208C12.5377 10.1475 12.7047 10.0066 12.8399 9.81347L12.8421 9.81025L12.8444 9.80704C12.9678 9.63425 13.0422 9.42359 13.0382 9.20045ZM9.11776 6.41434C9.10432 6.45143 9.08844 6.48693 9.07038 6.52071C8.92347 6.28272 8.69872 6.09058 8.41614 5.98728C8.13389 5.88409 7.83912 5.88605 7.57452 5.97321C7.58229 5.93587 7.5928 5.89863 7.60617 5.86174C7.75772 5.44353 8.21896 5.2282 8.63637 5.3808C9.05379 5.53339 9.26931 5.99613 9.11776 6.41434Z" fill="#D83969"/>
</svg>
